<svg version="1.1" id="Capa_1" xmlns:x="ns_extend;" xmlns:i="ns_ai;" xmlns:graph="ns_graphs;" xmlns="http://www.w3.org/2000/svg" xmlns:xlink="http://www.w3.org/1999/xlink" x="0px" y="0px" viewBox="0 0 156 52" style="enable-background:new 0 0 156 52;" xml:space="preserve">
 <style type="text/css">
  .st0{fill-rule:evenodd;clip-rule:evenodd;fill:#44307A;}
	.st1{fill:#44307A;}
 </style>
 <metadata>
  <sfw xmlns="ns_sfw;">
   <slices>
   </slices>
   <sliceSourceBounds bottomLeftOrigin="true" height="52" width="156" x="522" y="174">
   </sliceSourceBounds>
  </sfw>
 </metadata>
 <g id="Black_2_">
  <path class="st0" d="M65,26V0.5h6.5v13.2c2.4-1.6,5.3-2.6,8.4-2.6c8.2,0,14.9,6.7,14.9,14.9s-6.7,14.9-14.9,14.9S65,34.2,65,26z
		 M79.8,34.4c-4.6,0-8.4-3.7-8.4-8.4s3.7-8.4,8.4-8.4s8.4,3.7,8.4,8.4S84.5,34.4,79.8,34.4z">
  </path>
  <path class="st0" d="M55.2,38.3v2.1h6.5V26c0-8.2-6.7-14.9-14.9-14.9S32,17.8,32,26s6.7,14.9,14.9,14.9
		C50,40.9,52.9,39.9,55.2,38.3z M38.5,26c0-4.6,3.7-8.4,8.4-8.4s8.4,3.7,8.4,8.4s-3.7,8.4-8.4,8.4S38.5,30.6,38.5,26z">
  </path>
  <path class="st1" d="M14.9,17.6c-4.6,0-8.4,3.7-8.4,8.4s3.7,8.4,8.4,8.4c3.5,0,6.4-2.1,7.7-5.1h6.8c-1.5,6.6-7.4,11.6-14.5,11.6
		C6.7,40.9,0,34.2,0,26s6.7-14.9,14.9-14.9c7.1,0,13,5,14.5,11.6h-6.8C21.3,19.7,18.3,17.6,14.9,17.6z">
  </path>
  <path class="st1" d="M98.4,11.6v28.8h6.5V11.6H98.4z">
  </path>
  <path class="st1" d="M128.5,1c-1.4-0.6-2.9-1-4.5-1c-6.1,0-11.1,5-11.1,11.1v0.5h-4.2v6.5h4.2v22.3h6.5V18.1h8.4l9.2,20.6l-1.8,4.1
		c-1,2.3-3.8,3.4-6.1,2.4l-2.6,5.9c5.6,2.5,12.2,0,14.7-5.6l15-33.8h-7.1l-8.5,19.1l-6.8-15.2c-1.1-2.4-3.4-3.9-5.9-3.9h-8.4v-0.5
		c0-2.6,2.1-4.6,4.6-4.6c0.7,0,1.3,0.1,1.9,0.4L128.5,1z">
  </path>
  <path class="st1" d="M105.4,3.7c0,2.1-1.7,3.7-3.7,3.7s-3.7-1.7-3.7-3.7S99.6,0,101.7,0S105.4,1.7,105.4,3.7z">
  </path>
 </g>
</svg>