<?xml version="1.0" encoding="UTF-8" standalone="no"?><!DOCTYPE svg PUBLIC "-//W3C//DTD SVG 1.1//EN" "http://www.w3.org/Graphics/SVG/1.1/DTD/svg11.dtd"><svg width="100%" height="100%" viewBox="0 0 2105 1281" version="1.1" xmlns="http://www.w3.org/2000/svg" xmlns:xlink="http://www.w3.org/1999/xlink" xml:space="preserve" xmlns:serif="http://www.serif.com/" style="fill-rule:evenodd;clip-rule:evenodd;stroke-linejoin:round;stroke-miterlimit:2;"><g id="Logo"><path d="M595.665,803.484c59.137,0 104.859,-45.725 104.859,-113.394l0,-263.369l64.014,0l0,426.755l-63.404,0l0,-39.627c-28.655,29.872 -68.279,46.942 -112.783,46.942c-91.45,0 -161.559,-66.452 -161.559,-167.043l0,-267.027l64.015,0l0,263.369c0,68.889 45.111,113.394 104.858,113.394" style="fill-rule:nonzero;"/><path d="M979.741,806.532c58.527,0 106.687,-48.162 106.687,-107.906c0,-60.357 -48.16,-107.909 -106.687,-107.909c-59.137,0 -107.299,47.552 -107.299,107.909c0,59.744 47.552,107.906 107.299,107.906m-167.653,-379.811l61.574,0l0,155.461c28.045,-28.655 67.062,-46.335 110.347,-46.335c91.446,0 163.385,72.55 163.385,162.779c0,89.616 -71.939,162.165 -163.385,162.165c-43.285,0 -82.912,-17.68 -110.956,-46.334l0,39.016l-60.965,0l0,-426.752Z" style="fill-rule:nonzero;"/><path d="M1235.18,669.362l189.601,0c-10.366,-47.552 -48.772,-79.254 -94.497,-79.254c-45.721,0 -84.128,31.702 -95.104,79.254m96.324,-132.904c89.616,0 155.461,68.889 155.461,161.555l-0,20.12l-253.005,0c8.535,50.6 50.603,88.4 103.032,88.4c35.966,0 66.452,-14.633 89.616,-45.725l44.508,32.922c-31.096,41.454 -77.427,66.449 -134.124,66.449c-93.277,0 -165.216,-69.499 -165.216,-162.166c-0,-87.788 68.889,-161.555 159.728,-161.555" style="fill-rule:nonzero;"/><path d="M1652.18,597.423c-40.237,0 -69.499,31.092 -69.499,79.254l-0,176.798l-61.574,0l0,-310.922l60.964,0l0,38.41c15.242,-24.997 40.237,-40.847 74.377,-40.847l21.336,0l0,57.307l-25.604,0Z" style="fill-rule:nonzero;"/></g></svg>