<svg viewBox="0 0 2105 1281" xmlns="http://www.w3.org/2000/svg" xml:space="preserve" style="fill-rule:evenodd;clip-rule:evenodd;stroke-linejoin:round;stroke-miterlimit:2"><g id="Logo"><path d="M595.665 803.484c59.137 0 104.859-45.725 104.859-113.394V426.721h64.014v426.755h-63.404v-39.627c-28.655 29.872-68.279 46.942-112.783 46.942-91.45 0-161.559-66.452-161.559-167.043V426.721h64.015V690.09c0 68.889 45.111 113.394 104.858 113.394M979.741 806.532c58.527 0 106.687-48.162 106.687-107.906 0-60.357-48.16-107.909-106.687-107.909-59.137 0-107.299 47.552-107.299 107.909 0 59.744 47.552 107.906 107.299 107.906M812.088 426.721h61.574v155.461c28.045-28.655 67.062-46.335 110.347-46.335 91.446 0 163.385 72.55 163.385 162.779 0 89.616-71.939 162.165-163.385 162.165-43.285 0-82.912-17.68-110.956-46.334v39.016h-60.965V426.721ZM1235.18 669.362h189.601c-10.366-47.552-48.772-79.254-94.497-79.254-45.721 0-84.128 31.702-95.104 79.254m96.324-132.904c89.616 0 155.461 68.889 155.461 161.555v20.12H1233.96c8.535 50.6 50.603 88.4 103.032 88.4 35.966 0 66.452-14.633 89.616-45.725l44.508 32.922c-31.096 41.454-77.427 66.449-134.124 66.449-93.277 0-165.216-69.499-165.216-162.166 0-87.788 68.889-161.555 159.728-161.555M1652.18 597.423c-40.237 0-69.499 31.092-69.499 79.254v176.798h-61.574V542.553h60.964v38.41c15.242-24.997 40.237-40.847 74.377-40.847h21.336v57.307h-25.604Z" style="fill-rule:nonzero"/></g></svg>